HIERARCHY
ROOT hip
{
  OFFSET -5.44982e-005 106.236 -1.42206
  CHANNELS 6 Xposition Yposition Zposition Zrotation Xrotation Yrotation
  JOINT abdomen
  {
    OFFSET 0 -1.186 -1.50178
    CHANNELS 6 Xposition Yposition Zposition Zrotation Xrotation Yrotation
    JOINT abdomen2
    {
      OFFSET 0 9.964 0.21338
      CHANNELS 6 Xposition Yposition Zposition Zrotation Xrotation Yrotation
      JOINT chest
      {
        OFFSET 0 13.134 -3.25729
        CHANNELS 6 Xposition Yposition Zposition Zrotation Xrotation Yrotation
        JOINT neck
        {
          OFFSET 0 20.686 -1.69049
          CHANNELS 6 Xposition Yposition Zposition Zrotation Xrotation Yrotation
          JOINT head
          {
            OFFSET 0 7.23799 -0.12368
            CHANNELS 6 Xposition Yposition Zposition Zrotation Xrotation Yrotation
            End Site
            {
              OFFSET 0 10.017 2.38717
            }
          }
        }
        JOINT lCollar
        {
          OFFSET 1.70688 20.075 5.0056
          CHANNELS 6 Xposition Yposition Zposition Zrotation Xrotation Yrotation
          JOINT lShldr
          {
            OFFSET 13.6458 -0.047012 -4.84902
            CHANNELS 6 Xposition Yposition Zposition Zrotation Xrotation Yrotation
            JOINT lForeArm
            {
              OFFSET 28.3255 -0.975903 2.28883
              CHANNELS 6 Xposition Yposition Zposition Zrotation Xrotation Yrotation
              JOINT lHand
              {
                OFFSET 22.1583 -0.530035 10.8316
                CHANNELS 6 Xposition Yposition Zposition Zrotation Xrotation Yrotation
                JOINT lThumb1
                {
                  OFFSET 0.785995 0.111999 2.58168
                  CHANNELS 6 Xposition Yposition Zposition Zrotation Xrotation Yrotation
                  JOINT lThumb2
                  {
                    OFFSET 0.3601 -0.878005 4.2331
                    CHANNELS 6 Xposition Yposition Zposition Zrotation Xrotation Yrotation
                    End Site
                    {
                      OFFSET 1.81271 -1.21601 2.2227
                    }
                  }
                }
                JOINT lCarpal1
                {
                  OFFSET 0.9571 1.114 1.76948
                  CHANNELS 6 Xposition Yposition Zposition Zrotation Xrotation Yrotation
                  JOINT lIndex1
                  {
                    OFFSET 4.1246 0.487 4.1451
                    CHANNELS 6 Xposition Yposition Zposition Zrotation Xrotation Yrotation
                    JOINT lIndex2
                    {
                      OFFSET 3.40521 -1.45401 2.7682
                      CHANNELS 6 Xposition Yposition Zposition Zrotation Xrotation Yrotation
                      End Site
                      {
                        OFFSET 1.4531 -1.795 1.2713
                      }
                    }
                  }
                  JOINT lMid1
                  {
                    OFFSET 5.6954 0.209991 2.1184
                    CHANNELS 6 Xposition Yposition Zposition Zrotation Xrotation Yrotation
                    JOINT lMid2
                    {
                      OFFSET 3.9766 -1.53999 2.3863
                      CHANNELS 6 Xposition Yposition Zposition Zrotation Xrotation Yrotation
                      End Site
                      {
                        OFFSET 1.4042 -1.926 1.125
                      }
                    }
                  }
                }
                JOINT lCarpal2
                {
                  OFFSET 2.09559 0.65999 -0.38939
                  CHANNELS 6 Xposition Yposition Zposition Zrotation Xrotation Yrotation
                  JOINT lRing1
                  {
                    OFFSET 5.0395 -0.089997 2.49707
                    CHANNELS 6 Xposition Yposition Zposition Zrotation Xrotation Yrotation
                    JOINT lRing2
                    {
                      OFFSET 3.7921 -1.552 1.4806
                      CHANNELS 6 Xposition Yposition Zposition Zrotation Xrotation Yrotation
                      End Site
                      {
                        OFFSET 1.4655 -1.808 0.9609
                      }
                    }
                  }
                  JOINT lPinky1
                  {
                    OFFSET 4.9141 -1.269 0.35915
                    CHANNELS 6 Xposition Yposition Zposition Zrotation Xrotation Yrotation
                    JOINT lPinky2
                    {
                      OFFSET 3.1477 -1.685 0.84623
                      CHANNELS 6 Xposition Yposition Zposition Zrotation Xrotation Yrotation
                      End Site
                      {
                        OFFSET 0.805505 -1.58499 0.79549
                      }
                    }
                  }
                }
              }
            }
          }
        }
        JOINT rCollar
        {
          OFFSET -1.70688 20.075 5.0056
          CHANNELS 6 Xposition Yposition Zposition Zrotation Xrotation Yrotation
          JOINT rShldr
          {
            OFFSET -13.6458 -0.047012 -4.84902
            CHANNELS 6 Xposition Yposition Zposition Zrotation Xrotation Yrotation
            JOINT rForeArm
            {
              OFFSET -28.3255 -0.975903 2.28883
              CHANNELS 6 Xposition Yposition Zposition Zrotation Xrotation Yrotation
              JOINT rHand
              {
                OFFSET -22.1583 -0.530036 10.8316
                CHANNELS 6 Xposition Yposition Zposition Zrotation Xrotation Yrotation
                JOINT rThumb1
                {
                  OFFSET -0.785995 0.111999 2.58168
                  CHANNELS 6 Xposition Yposition Zposition Zrotation Xrotation Yrotation
                  JOINT rThumb2
                  {
                    OFFSET -0.3601 -0.878005 4.2331
                    CHANNELS 6 Xposition Yposition Zposition Zrotation Xrotation Yrotation
                    End Site
                    {
                      OFFSET -1.81271 -1.21601 2.2227
                    }
                  }
                }
                JOINT rCarpal1
                {
                  OFFSET -0.9571 1.114 1.76948
                  CHANNELS 6 Xposition Yposition Zposition Zrotation Xrotation Yrotation
                  JOINT rIndex1
                  {
                    OFFSET -4.1246 0.487 4.1451
                    CHANNELS 6 Xposition Yposition Zposition Zrotation Xrotation Yrotation
                    JOINT rIndex2
                    {
                      OFFSET -3.40521 -1.45401 2.7682
                      CHANNELS 6 Xposition Yposition Zposition Zrotation Xrotation Yrotation
                      End Site
                      {
                        OFFSET -1.4531 -1.795 1.2713
                      }
                    }
                  }
                  JOINT rMid1
                  {
                    OFFSET -5.6954 0.209991 2.1184
                    CHANNELS 6 Xposition Yposition Zposition Zrotation Xrotation Yrotation
                    JOINT rMid2
                    {
                      OFFSET -3.9766 -1.53999 2.3863
                      CHANNELS 6 Xposition Yposition Zposition Zrotation Xrotation Yrotation
                      End Site
                      {
                        OFFSET -1.4042 -1.926 1.125
                      }
                    }
                  }
                }
                JOINT rCarpal2
                {
                  OFFSET -2.09559 0.65999 -0.38939
                  CHANNELS 6 Xposition Yposition Zposition Zrotation Xrotation Yrotation
                  JOINT rRing1
                  {
                    OFFSET -5.0395 -0.089997 2.49707
                    CHANNELS 6 Xposition Yposition Zposition Zrotation Xrotation Yrotation
                    JOINT rRing2
                    {
                      OFFSET -3.7921 -1.552 1.4806
                      CHANNELS 6 Xposition Yposition Zposition Zrotation Xrotation Yrotation
                      End Site
                      {
                        OFFSET -1.4655 -1.808 0.9609
                      }
                    }
                  }
                  JOINT rPinky1
                  {
                    OFFSET -4.9141 -1.269 0.35915
                    CHANNELS 6 Xposition Yposition Zposition Zrotation Xrotation Yrotation
                    JOINT rPinky2
                    {
                      OFFSET -3.1477 -1.685 0.84623
                      CHANNELS 6 Xposition Yposition Zposition Zrotation Xrotation Yrotation
                      End Site
                      {
                        OFFSET -0.805505 -1.58499 0.79549
                      }
                    }
                  }
                }
              }
            }
          }
        }
      }
    }
  }
  JOINT lThigh
  {
    OFFSET 8.367 -8.2066 0.59823
    CHANNELS 6 Xposition Yposition Zposition Zrotation Xrotation Yrotation
    JOINT lShin
    {
      OFFSET 2.19232 -43.463 -0.493181
      CHANNELS 6 Xposition Yposition Zposition Zrotation Xrotation Yrotation
      JOINT lFoot
      {
        OFFSET 0.733257 -45.8593 -2.64513
        CHANNELS 6 Xposition Yposition Zposition Zrotation Xrotation Yrotation
        End Site
        {
          OFFSET 2.6618 -4.26993 12.3931
        }
      }
    }
  }
  JOINT rThigh
  {
    OFFSET -8.367 -8.2066 0.59823
    CHANNELS 6 Xposition Yposition Zposition Zrotation Xrotation Yrotation
    JOINT rShin
    {
      OFFSET -2.19233 -43.463 -0.493108
      CHANNELS 6 Xposition Yposition Zposition Zrotation Xrotation Yrotation
      JOINT rFoot
      {
        OFFSET -0.733256 -45.8593 -2.64514
        CHANNELS 6 Xposition Yposition Zposition Zrotation Xrotation Yrotation
        End Site
        {
          OFFSET -2.6618 -4.26993 12.3931
        }
      }
    }
  }
}
MOTION
Frames:	4
Frame Time:	0.0333333
-22.1944 82.1046 27.1558 2.84541 27.338 -31.6452 3.55271e-015 -1.186 -1.50178 8.46606 8.17008 -6.34551 0 9.964 0.21338 2.2305 9.79713 -3.78853 0 13.134 -3.25729 0.886271 9.45637 -3.19807 -7.10543e-015 20.686 -1.69049 1.23825 -5.91235 6.75591 7.10543e-015 7.23799 -0.12368 8.60333 -18.1613 18.2557 1.70688 20.075 5.0056 16.9993 -2.7388 -26.1 13.6458 -0.047012 -4.84902 15.248 -20.7827 -33.3031 28.3255 -0.975903 2.28883 1.17619 -4.86453 -61.8415 22.1583 -0.530035 10.8316 -52.092 -52.3706 -32.6226 0.785995 0.111999 2.58168 -6.36111e-015 -3.18055e-015 -3.18055e-015 0.3601 -0.878005 4.2331 -4.41391e-031 3.18055e-015 7.95139e-015 0.9571 1.114 1.76948 -6.36111e-015 -3.18055e-015 -3.18055e-015 4.1246 0.487 4.1451 -4.41391e-031 3.18055e-015 7.95139e-015 3.40521 -1.45401 2.7682 -3.18055e-015 -3.18055e-015 -1.59028e-015 5.6954 0.209991 2.1184 -4.41391e-031 3.18055e-015 7.95139e-015 3.9766 -1.53999 2.3863 -3.18055e-015 -3.18055e-015 -1.59028e-015 2.09559 0.65999 -0.38939 -6.36111e-015 -3.18055e-015 -3.18055e-015 5.0395 -0.089997 2.49707 -4.41391e-031 3.18055e-015 7.95139e-015 3.7921 -1.552 1.4806 -3.18055e-015 -3.18055e-015 -1.59028e-015 4.9141 -1.269 0.35915 -4.41391e-031 3.18055e-015 7.95139e-015 3.1477 -1.685 0.84623 -3.18055e-015 -3.18055e-015 -1.59028e-015 -1.70688 20.075 5.0056 13.155 8.19319 -13.4468 -13.6458 -0.047012 -4.84902 32.3736 -63.3418 -2.03298 -28.3255 -0.975903 2.28883 -3.84418 -1.84239 27.212 -22.1583 -0.530036 10.8316 -12.5223 -22.5693 5.68732 -0.785995 0.111999 2.58168 5.1684e-015 -9.93923e-016 -0 -0.3601 -0.878005 4.2331 -1.98785e-015 8.74653e-015 -3.18055e-015 -0.9571 1.114 1.76948 5.1684e-015 -9.93923e-016 -0 -4.1246 0.487 4.1451 -1.98785e-015 8.74653e-015 -3.18055e-015 -3.40521 -1.45401 2.7682 -7.95139e-016 6.06293e-015 3.18055e-015 -5.6954 0.209991 2.1184 -1.98785e-015 8.74653e-015 -3.18055e-015 -3.9766 -1.53999 2.3863 -7.95139e-016 6.06293e-015 3.18055e-015 -2.09559 0.65999 -0.38939 5.1684e-015 -9.93923e-016 -0 -5.0395 -0.089997 2.49707 -1.98785e-015 8.74653e-015 -3.18055e-015 -3.7921 -1.552 1.4806 -7.95139e-016 6.06293e-015 3.18055e-015 -4.9141 -1.269 0.35915 -1.98785e-015 8.74653e-015 -3.18055e-015 -3.1477 -1.685 0.84623 -7.95139e-016 6.06293e-015 3.18055e-015 8.367 -8.2066 0.59823 18.3365 3.9399 -2.28212 2.19232 -43.463 -0.493181 -3.10393 39.268 3.4281 0.733257 -45.8593 -2.64513 -2.33139 4.71163 4.78786 -8.367 -8.2066 0.59823 90.7103 -59.5804 100.588 -2.19233 -43.463 -0.493108 -40.5259 85.3412 37.4701 -0.733256 -45.8593 -2.64514 9.85503 -21.174 12.1707 
-22.3664 82.9879 27.2872 3.06246 24.9504 -29.4428 0 -1.186 -1.50178 7.85112 7.90783 -5.22212 0 9.964 0.21338 2.11308 9.20672 -2.88556 0 13.134 -3.25729 0.87624 8.84727 -2.33489 -7.10543e-015 20.686 -1.69049 1.2153 -5.55087 5.46766 0 7.23799 -0.12368 8.54514 -17.7729 17.853 1.70688 20.075 5.0056 17.79 -2.40339 -25.6486 13.6458 -0.047012 -4.84902 15.9085 -21.7907 -36.1579 28.3255 -0.975903 2.28883 1.17183 -4.87826 -61.9809 22.1583 -0.530035 10.8316 -53.1168 -53.6906 -31.9204 0.785995 0.111999 2.58168 5.29669e-031 -6.36111e-015 4.77083e-015 0.3601 -0.878006 4.2331 3.18055e-015 3.18055e-015 1.59028e-015 0.9571 1.114 1.76948 5.29669e-031 -6.36111e-015 4.77083e-015 4.1246 0.487 4.1451 3.18055e-015 3.18055e-015 1.59028e-015 3.40521 -1.45401 2.7682 3.18055e-015 0 -4.77083e-015 5.6954 0.209991 2.1184 3.18055e-015 3.18055e-015 1.59028e-015 3.9766 -1.53999 2.3863 3.18055e-015 0 -4.77083e-015 2.09559 0.659991 -0.38939 5.29669e-031 -6.36111e-015 4.77083e-015 5.0395 -0.0899971 2.49707 3.18055e-015 3.18055e-015 1.59028e-015 3.7921 -1.552 1.4806 3.18055e-015 0 -4.77083e-015 4.9141 -1.269 0.35915 3.18055e-015 3.18055e-015 1.59028e-015 3.1477 -1.685 0.846229 3.18055e-015 0 -4.77083e-015 -1.70688 20.075 5.0056 13.2127 8.33278 -12.8932 -13.6458 -0.047012 -4.84902 22.329 -65.6316 -14.8232 -28.3255 -0.975904 2.28883 -3.9182 -2.15727 31.0416 -22.1583 -0.530036 10.8316 -14.324 -19.5107 6.11348 -0.785995 0.111999 2.58168 -2.98177e-016 -6.95746e-015 -6.36111e-015 -0.3601 -0.878005 4.2331 2.98177e-015 2.08724e-015 -3.18055e-015 -0.9571 1.114 1.76948 -2.98177e-016 -6.95746e-015 -6.36111e-015 -4.1246 0.487 4.1451 2.98177e-015 2.08724e-015 -3.18055e-015 -3.40521 -1.45401 2.7682 -3.27995e-015 4.67144e-015 -3.18055e-015 -5.6954 0.209991 2.1184 2.98177e-015 2.08724e-015 -3.18055e-015 -3.9766 -1.53999 2.3863 -3.27995e-015 4.67144e-015 -3.18055e-015 -2.09559 0.65999 -0.38939 -2.98177e-016 -6.95746e-015 -6.36111e-015 -5.0395 -0.089997 2.49707 2.98177e-015 2.08724e-015 -3.18055e-015 -3.7921 -1.552 1.4806 -3.27995e-015 4.67144e-015 -3.18055e-015 -4.9141 -1.269 0.35915 2.98177e-015 2.08724e-015 -3.18055e-015 -3.1477 -1.685 0.84623 -3.27995e-015 4.67144e-015 -3.18055e-015 8.367 -8.2066 0.59823 18.8619 1.25286 -4.51866 2.19232 -43.463 -0.493181 -3.85455 44.3895 4.3858 0.733257 -45.8593 -2.64513 -2.33492 2.45962 2.67738 -8.367 -8.2066 0.59823 83.2582 -62.4784 94.0809 -2.19233 -43.463 -0.493108 -38.3254 85.1115 35.289 -0.733256 -45.8593 -2.64514 9.81704 -22.0979 11.9745 
-22.496 84.3214 27.3648 3.46696 22.2559 -27.5344 -3.55271e-015 -1.186 -1.50178 7.06647 7.68134 -3.96623 0 9.964 0.21338 1.86069 8.63424 -1.89188 0 13.134 -3.25729 0.752306 8.27752 -1.38171 3.55271e-015 20.686 -1.69049 1.16999 -5.13386 4.16769 -3.55271e-015 7.23799 -0.12368 8.6058 -16.9287 17.1779 1.70688 20.075 5.0056 18.6031 -2.17011 -24.9703 13.6458 -0.047012 -4.84902 14.3879 -23.7524 -38.903 28.3255 -0.975903 2.28883 1.17971 -4.86205 -61.7911 22.1583 -0.530035 10.8316 -52.2416 -53.6133 -29.0844 0.785995 0.111999 2.58168 -4.77083e-015 -3.18055e-015 -2.38542e-015 0.3601 -0.878006 4.2331 -1.59028e-015 3.18055e-015 7.95139e-015 0.9571 1.114 1.76948 -4.77083e-015 -3.18055e-015 -2.38542e-015 4.1246 0.487 4.1451 -1.59028e-015 3.18055e-015 7.95139e-015 3.40521 -1.45401 2.7682 0 0 -5.56597e-015 5.6954 0.209991 2.1184 -1.59028e-015 3.18055e-015 7.95139e-015 3.9766 -1.53999 2.3863 0 0 -5.56597e-015 2.09559 0.659991 -0.38939 -4.77083e-015 -3.18055e-015 -2.38542e-015 5.0395 -0.0899971 2.49707 -1.59028e-015 3.18055e-015 7.95139e-015 3.7921 -1.552 1.4806 0 0 -5.56597e-015 4.9141 -1.269 0.35915 -1.59028e-015 3.18055e-015 7.95139e-015 3.1477 -1.685 0.84623 0 0 -5.56597e-015 -1.70688 20.075 5.0056 13.0571 8.30655 -12.1587 -13.6458 -0.047012 -4.84902 12.9471 -65.3022 -28.3062 -28.3255 -0.975903 2.28883 -3.98313 -2.68988 37.3963 -22.1583 -0.530036 10.8316 -16.0101 -15.4212 5.6969 -0.785995 0.111999 2.58168 6.95746e-016 2.18663e-015 -3.18055e-015 -0.3601 -0.878005 4.2331 3.97569e-016 1.19271e-015 -9.54166e-015 -0.9571 1.114 1.76948 6.95746e-016 2.18663e-015 -3.18055e-015 -4.1246 0.487 4.1451 3.97569e-016 1.19271e-015 -9.54166e-015 -3.40521 -1.45401 2.7682 5.56597e-015 2.18663e-015 -9.54166e-015 -5.6954 0.209991 2.1184 3.97569e-016 1.19271e-015 -9.54166e-015 -3.9766 -1.53999 2.3863 5.56597e-015 2.18663e-015 -9.54166e-015 -2.09559 0.65999 -0.38939 6.95746e-016 2.18663e-015 -3.18055e-015 -5.0395 -0.089997 2.49707 3.97569e-016 1.19271e-015 -9.54166e-015 -3.7921 -1.552 1.4806 5.56597e-015 2.18663e-015 -9.54166e-015 -4.9141 -1.269 0.35915 3.97569e-016 1.19271e-015 -9.54166e-015 -3.1477 -1.685 0.84623 5.56597e-015 2.18663e-015 -9.54166e-015 8.367 -8.2066 0.59823 19.7845 -3.94976 -4.70994 2.19232 -43.463 -0.493181 -5.65294 53.09 6.56547 0.733257 -45.8593 -2.64513 -2.59659 -1.2546 -0.92448 -8.367 -8.2066 0.59823 72.4358 -64.7092 84.5365 -2.19233 -43.463 -0.493108 -31.1117 84.1613 28.121 -0.733256 -45.8593 -2.64514 9.82276 -22.7301 11.7197 
-22.5479 86.313 27.4332 4.09637 19.0163 -25.5881 0 -1.186 -1.50178 6.00985 7.45751 -2.48264 0 9.964 0.21338 1.4285 8.02536 -0.758309 0 13.134 -3.25729 0.472337 7.68483 -0.293217 0 20.686 -1.69049 1.10906 -4.63312 2.86512 0 7.23799 -0.12368 8.5579 -15.4022 16.0016 1.70688 20.075 5.0056 19.876 -2.28385 -24.1792 13.6458 -0.047012 -4.84902 4.04911 -29.3225 -40.8969 28.3255 -0.975903 2.28883 1.1946 -4.83815 -61.4908 22.1583 -0.530035 10.8316 -44.5961 -49.4309 -19.5507 0.785995 0.111999 2.58168 2.38542e-015 0 -1.21259e-014 0.3601 -0.878005 4.2331 -5.56597e-015 -9.54166e-015 5.76476e-015 0.9571 1.114 1.76948 2.38542e-015 0 -1.21259e-014 4.1246 0.487 4.1451 -5.56597e-015 -9.54166e-015 5.76476e-015 3.40521 -1.45401 2.7682 -7.95139e-016 -6.36111e-015 2.18663e-015 5.6954 0.209991 2.1184 -5.56597e-015 -9.54166e-015 5.76476e-015 3.9766 -1.53999 2.3863 -7.95139e-016 -6.36111e-015 2.18663e-015 2.09559 0.65999 -0.38939 2.38542e-015 0 -1.21259e-014 5.0395 -0.089997 2.49707 -5.56597e-015 -9.54166e-015 5.76476e-015 3.7921 -1.552 1.4806 -7.95139e-016 -6.36111e-015 2.18663e-015 4.9141 -1.269 0.35915 -5.56597e-015 -9.54166e-015 5.76476e-015 3.1477 -1.685 0.84623 -7.95139e-016 -6.36111e-015 2.18663e-015 -1.70688 20.075 5.0056 12.6562 7.80678 -11.4714 -13.6458 -0.047012 -4.84902 9.42126 -59.4163 -36.9711 -28.3255 -0.975903 2.28883 -3.95383 -3.37356 45.3919 -22.1583 -0.530036 10.8316 -17.9988 -11.653 3.11883 -0.785995 0.111999 2.58168 -2.5842e-015 9.93923e-016 -0 -0.3601 -0.878005 4.2331 3.37934e-015 5.1684e-015 -0 -0.9571 1.114 1.76948 -2.5842e-015 9.93923e-016 -0 -4.1246 0.487 4.1451 3.37934e-015 5.1684e-015 -0 -3.40521 -1.45401 2.7682 -1.59028e-015 5.76476e-015 -0 -5.6954 0.209991 2.1184 3.37934e-015 5.1684e-015 -0 -3.9766 -1.53999 2.3863 -1.59028e-015 5.76476e-015 -0 -2.09559 0.65999 -0.38939 -2.5842e-015 9.93923e-016 -0 -5.0395 -0.089997 2.49707 3.37934e-015 5.1684e-015 -0 -3.7921 -1.552 1.4806 -1.59028e-015 5.76476e-015 -0 -4.9141 -1.269 0.35915 3.37934e-015 5.1684e-015 -0 -3.1477 -1.685 0.84623 -1.59028e-015 5.76476e-015 -0 8.367 -8.2066 0.59823 21.5004 -11.2052 -1.93341 2.19232 -43.463 -0.493181 -9.58014 63.7686 11.0832 0.733257 -45.8593 -2.64513 -2.86786 -4.42038 -6.74739 -8.367 -8.2066 0.59823 56.7871 -65.7381 70.6482 -2.19233 -43.463 -0.493108 -22.091 82.0827 19.1739 -0.733256 -45.8593 -2.64514 9.85549 -23.0246 11.3682 
